M48
; DRILL file {KiCad 7.0.1} date Пт 03 ноя 2023 16:47:36
; FORMAT={-:-/ absolute / metric / decimal}
; #@! TF.CreationDate,2023-11-03T16:47:36+00:00
; #@! TF.GenerationSoftware,Kicad,Pcbnew,7.0.1
; #@! TF.FileFunction,Plated,1,2,PTH
FMAT,2
METRIC
; #@! TA.AperFunction,Plated,PTH,ViaDrill
T1C0.400
; #@! TA.AperFunction,Plated,PTH,ComponentDrill
T2C1.400
; #@! TA.AperFunction,Plated,PTH,ComponentDrill
T3C1.500
; #@! TA.AperFunction,Plated,PTH,ComponentDrill
T4C1.700
%
G90
G05
T1
X114.08Y-73.35
X114.08Y-74.79
X114.08Y-82.08
X114.1Y-83.41
X114.11Y-76.25
X114.11Y-80.64
X114.12Y-79.04
X114.13Y-77.66
X115.27Y-75.47
X115.28Y-73.35
X115.37Y-83.73
X115.38Y-81.61
X115.49Y-79.71
X115.5Y-77.59
X116.6Y-75.45
X116.7Y-83.71
X116.72Y-73.38
X116.82Y-79.69
X116.82Y-81.64
X116.94Y-77.62
X117.16Y-98.29
X117.47Y-59.61
X117.5Y-63.23
X117.9Y-95.19
X118.05Y-73.36
X118.09Y-75.49
X118.15Y-81.62
X118.19Y-83.75
X118.27Y-77.6
X118.31Y-79.73
X118.54Y-98.3
X118.85Y-59.62
X118.88Y-63.24
X119.34Y-95.19
X119.53Y-75.49
X119.54Y-73.4
X119.63Y-83.75
X119.64Y-81.66
X119.75Y-79.73
X119.76Y-77.64
X119.95Y-98.28
X120.26Y-59.6
X120.29Y-63.22
X120.83Y-95.23
X120.98Y-73.4
X120.99Y-75.46
X121.08Y-81.66
X121.09Y-83.72
X121.2Y-77.64
X121.21Y-79.7
X121.41Y-98.25
X121.72Y-59.57
X121.75Y-63.19
X122.16Y-95.21
X122.4Y-75.44
X122.44Y-73.37
X122.5Y-83.7
X122.54Y-81.63
X122.62Y-79.68
X122.66Y-77.61
X122.85Y-98.25
X123.12Y-88.23
X123.16Y-59.57
X123.19Y-63.19
X123.21Y-91.69
X123.36Y-70.2
X123.6Y-95.24
X123.71Y-66.73
X123.78Y-75.45
X123.85Y-73.35
X123.88Y-83.71
X123.95Y-81.61
X124.0Y-79.69
X124.07Y-77.59
X124.34Y-98.29
X124.65Y-59.61
X124.68Y-63.23
X124.8Y-70.2
X125.02Y-88.24
X125.09Y-66.74
X125.11Y-91.7
X125.2Y-95.25
X125.23Y-73.36
X125.33Y-75.47
X125.33Y-81.62
X125.43Y-83.73
X125.45Y-77.6
X125.55Y-79.71
X125.67Y-98.27
X125.98Y-59.59
X126.01Y-63.21
X126.26Y-70.17
X126.5Y-66.72
X126.58Y-95.26
X126.73Y-88.23
X126.77Y-75.47
X126.78Y-73.38
X126.82Y-91.69
X126.87Y-83.73
X126.88Y-81.64
X126.99Y-79.71
X127.0Y-77.62
X127.11Y-98.3
X127.42Y-59.62
X127.45Y-63.24
X127.64Y-70.18
X127.96Y-66.69
X127.99Y-95.24
X128.21Y-88.26
X128.3Y-91.72
X128.71Y-98.31
X129.02Y-59.63
X129.05Y-63.25
X129.05Y-70.16
X129.09Y-71.3
X129.14Y-72.52
X129.19Y-73.75
X129.23Y-87.36
X129.24Y-75.01
X129.24Y-85.99
X129.25Y-76.39
X129.25Y-78.97
X129.26Y-77.65
X129.26Y-80.3
X129.26Y-83.2
X129.27Y-81.67
X129.27Y-84.5
X129.4Y-66.69
X130.09Y-98.32
X130.4Y-59.64
X130.43Y-63.26
X130.49Y-91.64
X130.89Y-66.73
X131.5Y-98.3
X131.81Y-59.62
X131.84Y-63.24
X132.22Y-66.71
X132.39Y-91.65
X132.96Y-98.27
X133.27Y-59.59
X133.3Y-63.21
X133.64Y-68.3
X133.66Y-66.74
X133.68Y-69.83
X133.73Y-71.05
X133.78Y-72.28
X133.83Y-73.54
X133.84Y-74.92
X133.84Y-77.5
X133.85Y-76.18
X133.86Y-83.03
X133.87Y-84.45
X133.88Y-81.62
X133.88Y-85.92
X133.9Y-78.87
X133.92Y-80.18
X133.94Y-88.46
X134.04Y-90.91
X134.4Y-98.27
X134.71Y-59.59
X134.74Y-63.21
X136.48Y-73.3
X136.48Y-74.74
X136.48Y-92.09
X136.48Y-93.53
X136.5Y-63.19
X136.5Y-70.48
X136.5Y-80.54
X136.5Y-81.98
X136.5Y-89.27
X136.51Y-76.2
X136.52Y-71.81
X136.52Y-78.99
X136.52Y-90.6
X136.53Y-64.65
X136.53Y-69.04
X136.53Y-77.61
X136.53Y-83.44
X136.53Y-87.83
X136.54Y-67.44
X136.54Y-86.23
X136.55Y-66.06
X136.55Y-84.85
X138.54Y-74.29
X138.54Y-75.73
X138.54Y-93.08
X138.54Y-94.52
X138.56Y-62.74
X138.56Y-64.18
X138.56Y-71.47
X138.56Y-81.53
X138.56Y-82.97
X138.56Y-90.26
X138.57Y-77.19
X138.58Y-72.8
X138.58Y-79.98
X138.58Y-91.59
X138.59Y-65.64
X138.59Y-70.03
X138.59Y-78.6
X138.59Y-84.43
X138.59Y-88.82
X138.6Y-68.43
X138.6Y-87.22
X138.61Y-67.05
X138.61Y-85.84
T2
X131.53Y-89.14
X131.53Y-94.64
T3
X117.62Y-68.43
X117.65Y-89.68
T4
X115.08Y-65.89
X115.08Y-70.97
X115.11Y-87.14
X115.11Y-92.22
X120.16Y-65.89
X120.16Y-70.97
X120.19Y-87.14
X120.19Y-92.22
T0
M30
