%TF.GenerationSoftware,KiCad,Pcbnew,7.0.1*%
%TF.CreationDate,2023-11-03T16:47:46+00:00*%
%TF.ProjectId,SMA_Kondensator_Tets,534d415f-4b6f-46e6-9465-6e7361746f72,rev?*%
%TF.SameCoordinates,Original*%
%TF.FileFunction,Legend,Top*%
%TF.FilePolarity,Positive*%
%FSLAX46Y46*%
G04 Gerber Fmt 4.6, Leading zero omitted, Abs format (unit mm)*
G04 Created by KiCad (PCBNEW 7.0.1) date 2023-11-03 16:47:46*
%MOMM*%
%LPD*%
G01*
G04 APERTURE LIST*
%ADD10C,0.150000*%
%ADD11C,0.120000*%
G04 APERTURE END LIST*
D10*
X124818571Y-95477619D02*
X125009047Y-95477619D01*
X125009047Y-95477619D02*
X125104285Y-95525238D01*
X125104285Y-95525238D02*
X125199523Y-95620476D01*
X125199523Y-95620476D02*
X125247142Y-95810952D01*
X125247142Y-95810952D02*
X125247142Y-96144285D01*
X125247142Y-96144285D02*
X125199523Y-96334761D01*
X125199523Y-96334761D02*
X125104285Y-96430000D01*
X125104285Y-96430000D02*
X125009047Y-96477619D01*
X125009047Y-96477619D02*
X124818571Y-96477619D01*
X124818571Y-96477619D02*
X124723333Y-96430000D01*
X124723333Y-96430000D02*
X124628095Y-96334761D01*
X124628095Y-96334761D02*
X124580476Y-96144285D01*
X124580476Y-96144285D02*
X124580476Y-95810952D01*
X124580476Y-95810952D02*
X124628095Y-95620476D01*
X124628095Y-95620476D02*
X124723333Y-95525238D01*
X124723333Y-95525238D02*
X124818571Y-95477619D01*
X125532857Y-95810952D02*
X125913809Y-95810952D01*
X125675714Y-95477619D02*
X125675714Y-96334761D01*
X125675714Y-96334761D02*
X125723333Y-96430000D01*
X125723333Y-96430000D02*
X125818571Y-96477619D01*
X125818571Y-96477619D02*
X125913809Y-96477619D01*
X126247143Y-96477619D02*
X126247143Y-95477619D01*
X126675714Y-96477619D02*
X126675714Y-95953809D01*
X126675714Y-95953809D02*
X126628095Y-95858571D01*
X126628095Y-95858571D02*
X126532857Y-95810952D01*
X126532857Y-95810952D02*
X126390000Y-95810952D01*
X126390000Y-95810952D02*
X126294762Y-95858571D01*
X126294762Y-95858571D02*
X126247143Y-95906190D01*
X127532857Y-96430000D02*
X127437619Y-96477619D01*
X127437619Y-96477619D02*
X127247143Y-96477619D01*
X127247143Y-96477619D02*
X127151905Y-96430000D01*
X127151905Y-96430000D02*
X127104286Y-96334761D01*
X127104286Y-96334761D02*
X127104286Y-95953809D01*
X127104286Y-95953809D02*
X127151905Y-95858571D01*
X127151905Y-95858571D02*
X127247143Y-95810952D01*
X127247143Y-95810952D02*
X127437619Y-95810952D01*
X127437619Y-95810952D02*
X127532857Y-95858571D01*
X127532857Y-95858571D02*
X127580476Y-95953809D01*
X127580476Y-95953809D02*
X127580476Y-96049047D01*
X127580476Y-96049047D02*
X127104286Y-96144285D01*
X128009048Y-96477619D02*
X128009048Y-95810952D01*
X128009048Y-96001428D02*
X128056667Y-95906190D01*
X128056667Y-95906190D02*
X128104286Y-95858571D01*
X128104286Y-95858571D02*
X128199524Y-95810952D01*
X128199524Y-95810952D02*
X128294762Y-95810952D01*
X124580476Y-98050000D02*
X124675714Y-98097619D01*
X124675714Y-98097619D02*
X124866190Y-98097619D01*
X124866190Y-98097619D02*
X124961428Y-98050000D01*
X124961428Y-98050000D02*
X125009047Y-97954761D01*
X125009047Y-97954761D02*
X125009047Y-97907142D01*
X125009047Y-97907142D02*
X124961428Y-97811904D01*
X124961428Y-97811904D02*
X124866190Y-97764285D01*
X124866190Y-97764285D02*
X124723333Y-97764285D01*
X124723333Y-97764285D02*
X124628095Y-97716666D01*
X124628095Y-97716666D02*
X124580476Y-97621428D01*
X124580476Y-97621428D02*
X124580476Y-97573809D01*
X124580476Y-97573809D02*
X124628095Y-97478571D01*
X124628095Y-97478571D02*
X124723333Y-97430952D01*
X124723333Y-97430952D02*
X124866190Y-97430952D01*
X124866190Y-97430952D02*
X124961428Y-97478571D01*
X125437619Y-98097619D02*
X125437619Y-97430952D01*
X125437619Y-97097619D02*
X125390000Y-97145238D01*
X125390000Y-97145238D02*
X125437619Y-97192857D01*
X125437619Y-97192857D02*
X125485238Y-97145238D01*
X125485238Y-97145238D02*
X125437619Y-97097619D01*
X125437619Y-97097619D02*
X125437619Y-97192857D01*
X125818571Y-97430952D02*
X126342380Y-97430952D01*
X126342380Y-97430952D02*
X125818571Y-98097619D01*
X125818571Y-98097619D02*
X126342380Y-98097619D01*
X127104285Y-98050000D02*
X127009047Y-98097619D01*
X127009047Y-98097619D02*
X126818571Y-98097619D01*
X126818571Y-98097619D02*
X126723333Y-98050000D01*
X126723333Y-98050000D02*
X126675714Y-97954761D01*
X126675714Y-97954761D02*
X126675714Y-97573809D01*
X126675714Y-97573809D02*
X126723333Y-97478571D01*
X126723333Y-97478571D02*
X126818571Y-97430952D01*
X126818571Y-97430952D02*
X127009047Y-97430952D01*
X127009047Y-97430952D02*
X127104285Y-97478571D01*
X127104285Y-97478571D02*
X127151904Y-97573809D01*
X127151904Y-97573809D02*
X127151904Y-97669047D01*
X127151904Y-97669047D02*
X126675714Y-97764285D01*
X127532857Y-98050000D02*
X127628095Y-98097619D01*
X127628095Y-98097619D02*
X127818571Y-98097619D01*
X127818571Y-98097619D02*
X127913809Y-98050000D01*
X127913809Y-98050000D02*
X127961428Y-97954761D01*
X127961428Y-97954761D02*
X127961428Y-97907142D01*
X127961428Y-97907142D02*
X127913809Y-97811904D01*
X127913809Y-97811904D02*
X127818571Y-97764285D01*
X127818571Y-97764285D02*
X127675714Y-97764285D01*
X127675714Y-97764285D02*
X127580476Y-97716666D01*
X127580476Y-97716666D02*
X127532857Y-97621428D01*
X127532857Y-97621428D02*
X127532857Y-97573809D01*
X127532857Y-97573809D02*
X127580476Y-97478571D01*
X127580476Y-97478571D02*
X127675714Y-97430952D01*
X127675714Y-97430952D02*
X127818571Y-97430952D01*
X127818571Y-97430952D02*
X127913809Y-97478571D01*
X138022380Y-85200476D02*
X138070000Y-85248095D01*
X138070000Y-85248095D02*
X138117619Y-85390952D01*
X138117619Y-85390952D02*
X138117619Y-85486190D01*
X138117619Y-85486190D02*
X138070000Y-85629047D01*
X138070000Y-85629047D02*
X137974761Y-85724285D01*
X137974761Y-85724285D02*
X137879523Y-85771904D01*
X137879523Y-85771904D02*
X137689047Y-85819523D01*
X137689047Y-85819523D02*
X137546190Y-85819523D01*
X137546190Y-85819523D02*
X137355714Y-85771904D01*
X137355714Y-85771904D02*
X137260476Y-85724285D01*
X137260476Y-85724285D02*
X137165238Y-85629047D01*
X137165238Y-85629047D02*
X137117619Y-85486190D01*
X137117619Y-85486190D02*
X137117619Y-85390952D01*
X137117619Y-85390952D02*
X137165238Y-85248095D01*
X137165238Y-85248095D02*
X137212857Y-85200476D01*
X138117619Y-84343333D02*
X137593809Y-84343333D01*
X137593809Y-84343333D02*
X137498571Y-84390952D01*
X137498571Y-84390952D02*
X137450952Y-84486190D01*
X137450952Y-84486190D02*
X137450952Y-84676666D01*
X137450952Y-84676666D02*
X137498571Y-84771904D01*
X138070000Y-84343333D02*
X138117619Y-84438571D01*
X138117619Y-84438571D02*
X138117619Y-84676666D01*
X138117619Y-84676666D02*
X138070000Y-84771904D01*
X138070000Y-84771904D02*
X137974761Y-84819523D01*
X137974761Y-84819523D02*
X137879523Y-84819523D01*
X137879523Y-84819523D02*
X137784285Y-84771904D01*
X137784285Y-84771904D02*
X137736666Y-84676666D01*
X137736666Y-84676666D02*
X137736666Y-84438571D01*
X137736666Y-84438571D02*
X137689047Y-84343333D01*
X137450952Y-83867142D02*
X138450952Y-83867142D01*
X137498571Y-83867142D02*
X137450952Y-83771904D01*
X137450952Y-83771904D02*
X137450952Y-83581428D01*
X137450952Y-83581428D02*
X137498571Y-83486190D01*
X137498571Y-83486190D02*
X137546190Y-83438571D01*
X137546190Y-83438571D02*
X137641428Y-83390952D01*
X137641428Y-83390952D02*
X137927142Y-83390952D01*
X137927142Y-83390952D02*
X138022380Y-83438571D01*
X138022380Y-83438571D02*
X138070000Y-83486190D01*
X138070000Y-83486190D02*
X138117619Y-83581428D01*
X138117619Y-83581428D02*
X138117619Y-83771904D01*
X138117619Y-83771904D02*
X138070000Y-83867142D01*
X138117619Y-82533809D02*
X137593809Y-82533809D01*
X137593809Y-82533809D02*
X137498571Y-82581428D01*
X137498571Y-82581428D02*
X137450952Y-82676666D01*
X137450952Y-82676666D02*
X137450952Y-82867142D01*
X137450952Y-82867142D02*
X137498571Y-82962380D01*
X138070000Y-82533809D02*
X138117619Y-82629047D01*
X138117619Y-82629047D02*
X138117619Y-82867142D01*
X138117619Y-82867142D02*
X138070000Y-82962380D01*
X138070000Y-82962380D02*
X137974761Y-83009999D01*
X137974761Y-83009999D02*
X137879523Y-83009999D01*
X137879523Y-83009999D02*
X137784285Y-82962380D01*
X137784285Y-82962380D02*
X137736666Y-82867142D01*
X137736666Y-82867142D02*
X137736666Y-82629047D01*
X137736666Y-82629047D02*
X137689047Y-82533809D01*
X138070000Y-81629047D02*
X138117619Y-81724285D01*
X138117619Y-81724285D02*
X138117619Y-81914761D01*
X138117619Y-81914761D02*
X138070000Y-82009999D01*
X138070000Y-82009999D02*
X138022380Y-82057618D01*
X138022380Y-82057618D02*
X137927142Y-82105237D01*
X137927142Y-82105237D02*
X137641428Y-82105237D01*
X137641428Y-82105237D02*
X137546190Y-82057618D01*
X137546190Y-82057618D02*
X137498571Y-82009999D01*
X137498571Y-82009999D02*
X137450952Y-81914761D01*
X137450952Y-81914761D02*
X137450952Y-81724285D01*
X137450952Y-81724285D02*
X137498571Y-81629047D01*
X138117619Y-81200475D02*
X137450952Y-81200475D01*
X137117619Y-81200475D02*
X137165238Y-81248094D01*
X137165238Y-81248094D02*
X137212857Y-81200475D01*
X137212857Y-81200475D02*
X137165238Y-81152856D01*
X137165238Y-81152856D02*
X137117619Y-81200475D01*
X137117619Y-81200475D02*
X137212857Y-81200475D01*
X137450952Y-80867142D02*
X137450952Y-80486190D01*
X137117619Y-80724285D02*
X137974761Y-80724285D01*
X137974761Y-80724285D02*
X138070000Y-80676666D01*
X138070000Y-80676666D02*
X138117619Y-80581428D01*
X138117619Y-80581428D02*
X138117619Y-80486190D01*
X138117619Y-80009999D02*
X138070000Y-80105237D01*
X138070000Y-80105237D02*
X138022380Y-80152856D01*
X138022380Y-80152856D02*
X137927142Y-80200475D01*
X137927142Y-80200475D02*
X137641428Y-80200475D01*
X137641428Y-80200475D02*
X137546190Y-80152856D01*
X137546190Y-80152856D02*
X137498571Y-80105237D01*
X137498571Y-80105237D02*
X137450952Y-80009999D01*
X137450952Y-80009999D02*
X137450952Y-79867142D01*
X137450952Y-79867142D02*
X137498571Y-79771904D01*
X137498571Y-79771904D02*
X137546190Y-79724285D01*
X137546190Y-79724285D02*
X137641428Y-79676666D01*
X137641428Y-79676666D02*
X137927142Y-79676666D01*
X137927142Y-79676666D02*
X138022380Y-79724285D01*
X138022380Y-79724285D02*
X138070000Y-79771904D01*
X138070000Y-79771904D02*
X138117619Y-79867142D01*
X138117619Y-79867142D02*
X138117619Y-80009999D01*
X138117619Y-79248094D02*
X137450952Y-79248094D01*
X137641428Y-79248094D02*
X137546190Y-79200475D01*
X137546190Y-79200475D02*
X137498571Y-79152856D01*
X137498571Y-79152856D02*
X137450952Y-79057618D01*
X137450952Y-79057618D02*
X137450952Y-78962380D01*
X137117619Y-78009998D02*
X137117619Y-77438570D01*
X138117619Y-77724284D02*
X137117619Y-77724284D01*
X138070000Y-76724284D02*
X138117619Y-76819522D01*
X138117619Y-76819522D02*
X138117619Y-77009998D01*
X138117619Y-77009998D02*
X138070000Y-77105236D01*
X138070000Y-77105236D02*
X137974761Y-77152855D01*
X137974761Y-77152855D02*
X137593809Y-77152855D01*
X137593809Y-77152855D02*
X137498571Y-77105236D01*
X137498571Y-77105236D02*
X137450952Y-77009998D01*
X137450952Y-77009998D02*
X137450952Y-76819522D01*
X137450952Y-76819522D02*
X137498571Y-76724284D01*
X137498571Y-76724284D02*
X137593809Y-76676665D01*
X137593809Y-76676665D02*
X137689047Y-76676665D01*
X137689047Y-76676665D02*
X137784285Y-77152855D01*
X138070000Y-76295712D02*
X138117619Y-76200474D01*
X138117619Y-76200474D02*
X138117619Y-76009998D01*
X138117619Y-76009998D02*
X138070000Y-75914760D01*
X138070000Y-75914760D02*
X137974761Y-75867141D01*
X137974761Y-75867141D02*
X137927142Y-75867141D01*
X137927142Y-75867141D02*
X137831904Y-75914760D01*
X137831904Y-75914760D02*
X137784285Y-76009998D01*
X137784285Y-76009998D02*
X137784285Y-76152855D01*
X137784285Y-76152855D02*
X137736666Y-76248093D01*
X137736666Y-76248093D02*
X137641428Y-76295712D01*
X137641428Y-76295712D02*
X137593809Y-76295712D01*
X137593809Y-76295712D02*
X137498571Y-76248093D01*
X137498571Y-76248093D02*
X137450952Y-76152855D01*
X137450952Y-76152855D02*
X137450952Y-76009998D01*
X137450952Y-76009998D02*
X137498571Y-75914760D01*
X137450952Y-75581426D02*
X137450952Y-75200474D01*
X137117619Y-75438569D02*
X137974761Y-75438569D01*
X137974761Y-75438569D02*
X138070000Y-75390950D01*
X138070000Y-75390950D02*
X138117619Y-75295712D01*
X138117619Y-75295712D02*
X138117619Y-75200474D01*
X137593809Y-73771902D02*
X137641428Y-73629045D01*
X137641428Y-73629045D02*
X137689047Y-73581426D01*
X137689047Y-73581426D02*
X137784285Y-73533807D01*
X137784285Y-73533807D02*
X137927142Y-73533807D01*
X137927142Y-73533807D02*
X138022380Y-73581426D01*
X138022380Y-73581426D02*
X138070000Y-73629045D01*
X138070000Y-73629045D02*
X138117619Y-73724283D01*
X138117619Y-73724283D02*
X138117619Y-74105235D01*
X138117619Y-74105235D02*
X137117619Y-74105235D01*
X137117619Y-74105235D02*
X137117619Y-73771902D01*
X137117619Y-73771902D02*
X137165238Y-73676664D01*
X137165238Y-73676664D02*
X137212857Y-73629045D01*
X137212857Y-73629045D02*
X137308095Y-73581426D01*
X137308095Y-73581426D02*
X137403333Y-73581426D01*
X137403333Y-73581426D02*
X137498571Y-73629045D01*
X137498571Y-73629045D02*
X137546190Y-73676664D01*
X137546190Y-73676664D02*
X137593809Y-73771902D01*
X137593809Y-73771902D02*
X137593809Y-74105235D01*
X138117619Y-72962378D02*
X138070000Y-73057616D01*
X138070000Y-73057616D02*
X138022380Y-73105235D01*
X138022380Y-73105235D02*
X137927142Y-73152854D01*
X137927142Y-73152854D02*
X137641428Y-73152854D01*
X137641428Y-73152854D02*
X137546190Y-73105235D01*
X137546190Y-73105235D02*
X137498571Y-73057616D01*
X137498571Y-73057616D02*
X137450952Y-72962378D01*
X137450952Y-72962378D02*
X137450952Y-72819521D01*
X137450952Y-72819521D02*
X137498571Y-72724283D01*
X137498571Y-72724283D02*
X137546190Y-72676664D01*
X137546190Y-72676664D02*
X137641428Y-72629045D01*
X137641428Y-72629045D02*
X137927142Y-72629045D01*
X137927142Y-72629045D02*
X138022380Y-72676664D01*
X138022380Y-72676664D02*
X138070000Y-72724283D01*
X138070000Y-72724283D02*
X138117619Y-72819521D01*
X138117619Y-72819521D02*
X138117619Y-72962378D01*
X138117619Y-71771902D02*
X137593809Y-71771902D01*
X137593809Y-71771902D02*
X137498571Y-71819521D01*
X137498571Y-71819521D02*
X137450952Y-71914759D01*
X137450952Y-71914759D02*
X137450952Y-72105235D01*
X137450952Y-72105235D02*
X137498571Y-72200473D01*
X138070000Y-71771902D02*
X138117619Y-71867140D01*
X138117619Y-71867140D02*
X138117619Y-72105235D01*
X138117619Y-72105235D02*
X138070000Y-72200473D01*
X138070000Y-72200473D02*
X137974761Y-72248092D01*
X137974761Y-72248092D02*
X137879523Y-72248092D01*
X137879523Y-72248092D02*
X137784285Y-72200473D01*
X137784285Y-72200473D02*
X137736666Y-72105235D01*
X137736666Y-72105235D02*
X137736666Y-71867140D01*
X137736666Y-71867140D02*
X137689047Y-71771902D01*
X138117619Y-71295711D02*
X137450952Y-71295711D01*
X137641428Y-71295711D02*
X137546190Y-71248092D01*
X137546190Y-71248092D02*
X137498571Y-71200473D01*
X137498571Y-71200473D02*
X137450952Y-71105235D01*
X137450952Y-71105235D02*
X137450952Y-71009997D01*
X138117619Y-70248092D02*
X137117619Y-70248092D01*
X138070000Y-70248092D02*
X138117619Y-70343330D01*
X138117619Y-70343330D02*
X138117619Y-70533806D01*
X138117619Y-70533806D02*
X138070000Y-70629044D01*
X138070000Y-70629044D02*
X138022380Y-70676663D01*
X138022380Y-70676663D02*
X137927142Y-70724282D01*
X137927142Y-70724282D02*
X137641428Y-70724282D01*
X137641428Y-70724282D02*
X137546190Y-70676663D01*
X137546190Y-70676663D02*
X137498571Y-70629044D01*
X137498571Y-70629044D02*
X137450952Y-70533806D01*
X137450952Y-70533806D02*
X137450952Y-70343330D01*
X137450952Y-70343330D02*
X137498571Y-70248092D01*
X124030476Y-86470000D02*
X124173333Y-86517619D01*
X124173333Y-86517619D02*
X124411428Y-86517619D01*
X124411428Y-86517619D02*
X124506666Y-86470000D01*
X124506666Y-86470000D02*
X124554285Y-86422380D01*
X124554285Y-86422380D02*
X124601904Y-86327142D01*
X124601904Y-86327142D02*
X124601904Y-86231904D01*
X124601904Y-86231904D02*
X124554285Y-86136666D01*
X124554285Y-86136666D02*
X124506666Y-86089047D01*
X124506666Y-86089047D02*
X124411428Y-86041428D01*
X124411428Y-86041428D02*
X124220952Y-85993809D01*
X124220952Y-85993809D02*
X124125714Y-85946190D01*
X124125714Y-85946190D02*
X124078095Y-85898571D01*
X124078095Y-85898571D02*
X124030476Y-85803333D01*
X124030476Y-85803333D02*
X124030476Y-85708095D01*
X124030476Y-85708095D02*
X124078095Y-85612857D01*
X124078095Y-85612857D02*
X124125714Y-85565238D01*
X124125714Y-85565238D02*
X124220952Y-85517619D01*
X124220952Y-85517619D02*
X124459047Y-85517619D01*
X124459047Y-85517619D02*
X124601904Y-85565238D01*
X125030476Y-86517619D02*
X125030476Y-85517619D01*
X125030476Y-85517619D02*
X125363809Y-86231904D01*
X125363809Y-86231904D02*
X125697142Y-85517619D01*
X125697142Y-85517619D02*
X125697142Y-86517619D01*
X126173333Y-86517619D02*
X126173333Y-85517619D01*
X126173333Y-85517619D02*
X126411428Y-85517619D01*
X126411428Y-85517619D02*
X126554285Y-85565238D01*
X126554285Y-85565238D02*
X126649523Y-85660476D01*
X126649523Y-85660476D02*
X126697142Y-85755714D01*
X126697142Y-85755714D02*
X126744761Y-85946190D01*
X126744761Y-85946190D02*
X126744761Y-86089047D01*
X126744761Y-86089047D02*
X126697142Y-86279523D01*
X126697142Y-86279523D02*
X126649523Y-86374761D01*
X126649523Y-86374761D02*
X126554285Y-86470000D01*
X126554285Y-86470000D02*
X126411428Y-86517619D01*
X126411428Y-86517619D02*
X126173333Y-86517619D01*
X124601904Y-88137619D02*
X124030476Y-88137619D01*
X124316190Y-88137619D02*
X124316190Y-87137619D01*
X124316190Y-87137619D02*
X124220952Y-87280476D01*
X124220952Y-87280476D02*
X124125714Y-87375714D01*
X124125714Y-87375714D02*
X124030476Y-87423333D01*
X124982857Y-87232857D02*
X125030476Y-87185238D01*
X125030476Y-87185238D02*
X125125714Y-87137619D01*
X125125714Y-87137619D02*
X125363809Y-87137619D01*
X125363809Y-87137619D02*
X125459047Y-87185238D01*
X125459047Y-87185238D02*
X125506666Y-87232857D01*
X125506666Y-87232857D02*
X125554285Y-87328095D01*
X125554285Y-87328095D02*
X125554285Y-87423333D01*
X125554285Y-87423333D02*
X125506666Y-87566190D01*
X125506666Y-87566190D02*
X124935238Y-88137619D01*
X124935238Y-88137619D02*
X125554285Y-88137619D01*
X126173333Y-87137619D02*
X126268571Y-87137619D01*
X126268571Y-87137619D02*
X126363809Y-87185238D01*
X126363809Y-87185238D02*
X126411428Y-87232857D01*
X126411428Y-87232857D02*
X126459047Y-87328095D01*
X126459047Y-87328095D02*
X126506666Y-87518571D01*
X126506666Y-87518571D02*
X126506666Y-87756666D01*
X126506666Y-87756666D02*
X126459047Y-87947142D01*
X126459047Y-87947142D02*
X126411428Y-88042380D01*
X126411428Y-88042380D02*
X126363809Y-88090000D01*
X126363809Y-88090000D02*
X126268571Y-88137619D01*
X126268571Y-88137619D02*
X126173333Y-88137619D01*
X126173333Y-88137619D02*
X126078095Y-88090000D01*
X126078095Y-88090000D02*
X126030476Y-88042380D01*
X126030476Y-88042380D02*
X125982857Y-87947142D01*
X125982857Y-87947142D02*
X125935238Y-87756666D01*
X125935238Y-87756666D02*
X125935238Y-87518571D01*
X125935238Y-87518571D02*
X125982857Y-87328095D01*
X125982857Y-87328095D02*
X126030476Y-87232857D01*
X126030476Y-87232857D02*
X126078095Y-87185238D01*
X126078095Y-87185238D02*
X126173333Y-87137619D01*
X127363809Y-87137619D02*
X127173333Y-87137619D01*
X127173333Y-87137619D02*
X127078095Y-87185238D01*
X127078095Y-87185238D02*
X127030476Y-87232857D01*
X127030476Y-87232857D02*
X126935238Y-87375714D01*
X126935238Y-87375714D02*
X126887619Y-87566190D01*
X126887619Y-87566190D02*
X126887619Y-87947142D01*
X126887619Y-87947142D02*
X126935238Y-88042380D01*
X126935238Y-88042380D02*
X126982857Y-88090000D01*
X126982857Y-88090000D02*
X127078095Y-88137619D01*
X127078095Y-88137619D02*
X127268571Y-88137619D01*
X127268571Y-88137619D02*
X127363809Y-88090000D01*
X127363809Y-88090000D02*
X127411428Y-88042380D01*
X127411428Y-88042380D02*
X127459047Y-87947142D01*
X127459047Y-87947142D02*
X127459047Y-87709047D01*
X127459047Y-87709047D02*
X127411428Y-87613809D01*
X127411428Y-87613809D02*
X127363809Y-87566190D01*
X127363809Y-87566190D02*
X127268571Y-87518571D01*
X127268571Y-87518571D02*
X127078095Y-87518571D01*
X127078095Y-87518571D02*
X126982857Y-87566190D01*
X126982857Y-87566190D02*
X126935238Y-87613809D01*
X126935238Y-87613809D02*
X126887619Y-87709047D01*
%TO.C,J2*%
X117286666Y-73092619D02*
X117286666Y-73806904D01*
X117286666Y-73806904D02*
X117239047Y-73949761D01*
X117239047Y-73949761D02*
X117143809Y-74045000D01*
X117143809Y-74045000D02*
X117000952Y-74092619D01*
X117000952Y-74092619D02*
X116905714Y-74092619D01*
X117715238Y-73187857D02*
X117762857Y-73140238D01*
X117762857Y-73140238D02*
X117858095Y-73092619D01*
X117858095Y-73092619D02*
X118096190Y-73092619D01*
X118096190Y-73092619D02*
X118191428Y-73140238D01*
X118191428Y-73140238D02*
X118239047Y-73187857D01*
X118239047Y-73187857D02*
X118286666Y-73283095D01*
X118286666Y-73283095D02*
X118286666Y-73378333D01*
X118286666Y-73378333D02*
X118239047Y-73521190D01*
X118239047Y-73521190D02*
X117667619Y-74092619D01*
X117667619Y-74092619D02*
X118286666Y-74092619D01*
%TO.C,J1*%
X117316666Y-94342619D02*
X117316666Y-95056904D01*
X117316666Y-95056904D02*
X117269047Y-95199761D01*
X117269047Y-95199761D02*
X117173809Y-95295000D01*
X117173809Y-95295000D02*
X117030952Y-95342619D01*
X117030952Y-95342619D02*
X116935714Y-95342619D01*
X118316666Y-95342619D02*
X117745238Y-95342619D01*
X118030952Y-95342619D02*
X118030952Y-94342619D01*
X118030952Y-94342619D02*
X117935714Y-94485476D01*
X117935714Y-94485476D02*
X117840476Y-94580714D01*
X117840476Y-94580714D02*
X117745238Y-94628333D01*
%TO.C,J4*%
X131166666Y-97542619D02*
X131166666Y-98256904D01*
X131166666Y-98256904D02*
X131119047Y-98399761D01*
X131119047Y-98399761D02*
X131023809Y-98495000D01*
X131023809Y-98495000D02*
X130880952Y-98542619D01*
X130880952Y-98542619D02*
X130785714Y-98542619D01*
X132071428Y-97875952D02*
X132071428Y-98542619D01*
X131833333Y-97495000D02*
X131595238Y-98209285D01*
X131595238Y-98209285D02*
X132214285Y-98209285D01*
%TO.C,J3*%
X125296666Y-93942619D02*
X125296666Y-94656904D01*
X125296666Y-94656904D02*
X125249047Y-94799761D01*
X125249047Y-94799761D02*
X125153809Y-94895000D01*
X125153809Y-94895000D02*
X125010952Y-94942619D01*
X125010952Y-94942619D02*
X124915714Y-94942619D01*
X125677619Y-93942619D02*
X126296666Y-93942619D01*
X126296666Y-93942619D02*
X125963333Y-94323571D01*
X125963333Y-94323571D02*
X126106190Y-94323571D01*
X126106190Y-94323571D02*
X126201428Y-94371190D01*
X126201428Y-94371190D02*
X126249047Y-94418809D01*
X126249047Y-94418809D02*
X126296666Y-94514047D01*
X126296666Y-94514047D02*
X126296666Y-94752142D01*
X126296666Y-94752142D02*
X126249047Y-94847380D01*
X126249047Y-94847380D02*
X126201428Y-94895000D01*
X126201428Y-94895000D02*
X126106190Y-94942619D01*
X126106190Y-94942619D02*
X125820476Y-94942619D01*
X125820476Y-94942619D02*
X125725238Y-94895000D01*
X125725238Y-94895000D02*
X125677619Y-94847380D01*
D11*
%TO.C,J2*%
X113520000Y-72530000D02*
X121720000Y-72530000D01*
X113520000Y-72530000D02*
X113520000Y-64330000D01*
X118120000Y-72530000D02*
X117620000Y-72030000D01*
X121720000Y-72530000D02*
X121720000Y-64330000D01*
X117620000Y-72030000D02*
X117120000Y-72530000D01*
X113520000Y-64330000D02*
X121720000Y-64330000D01*
%TO.C,J1*%
X113550000Y-93780000D02*
X121750000Y-93780000D01*
X113550000Y-93780000D02*
X113550000Y-85580000D01*
X118150000Y-93780000D02*
X117650000Y-93280000D01*
X121750000Y-93780000D02*
X121750000Y-85580000D01*
X117650000Y-93280000D02*
X117150000Y-93780000D01*
X113550000Y-85580000D02*
X121750000Y-85580000D01*
%TO.C,J4*%
X134580000Y-97240000D02*
X134580000Y-94390000D01*
X134340000Y-97000000D02*
X134340000Y-87180000D01*
X134340000Y-87180000D02*
X133340000Y-87180000D01*
X133340000Y-87180000D02*
X133340000Y-85780000D01*
X133340000Y-85780000D02*
X131530000Y-85780000D01*
X131730000Y-97240000D02*
X134580000Y-97240000D01*
X131530000Y-97000000D02*
X134340000Y-97000000D01*
X131530000Y-97000000D02*
X128720000Y-97000000D01*
X129720000Y-87180000D02*
X129720000Y-85780000D01*
X129720000Y-85780000D02*
X131530000Y-85780000D01*
X128720000Y-97000000D02*
X128720000Y-87180000D01*
X128720000Y-87180000D02*
X129720000Y-87180000D01*
%TO.C,J3*%
X124750000Y-92105242D02*
X124750000Y-90434758D01*
X126570000Y-92105242D02*
X126570000Y-90434758D01*
%TD*%
M02*
