%TF.GenerationSoftware,KiCad,Pcbnew,7.0.1*%
%TF.CreationDate,2023-11-03T16:47:46+00:00*%
%TF.ProjectId,SMA_Kondensator_Tets,534d415f-4b6f-46e6-9465-6e7361746f72,rev?*%
%TF.SameCoordinates,Original*%
%TF.FileFunction,Copper,L2,Bot*%
%TF.FilePolarity,Positive*%
%FSLAX46Y46*%
G04 Gerber Fmt 4.6, Leading zero omitted, Abs format (unit mm)*
G04 Created by KiCad (PCBNEW 7.0.1) date 2023-11-03 16:47:46*
%MOMM*%
%LPD*%
G01*
G04 APERTURE LIST*
G04 Aperture macros list*
%AMRoundRect*
0 Rectangle with rounded corners*
0 $1 Rounding radius*
0 $2 $3 $4 $5 $6 $7 $8 $9 X,Y pos of 4 corners*
0 Add a 4 corners polygon primitive as box body*
4,1,4,$2,$3,$4,$5,$6,$7,$8,$9,$2,$3,0*
0 Add four circle primitives for the rounded corners*
1,1,$1+$1,$2,$3*
1,1,$1+$1,$4,$5*
1,1,$1+$1,$6,$7*
1,1,$1+$1,$8,$9*
0 Add four rect primitives between the rounded corners*
20,1,$1+$1,$2,$3,$4,$5,0*
20,1,$1+$1,$4,$5,$6,$7,0*
20,1,$1+$1,$6,$7,$8,$9,0*
20,1,$1+$1,$8,$9,$2,$3,0*%
G04 Aperture macros list end*
%TA.AperFunction,ComponentPad*%
%ADD10RoundRect,0.200100X0.949900X-0.949900X0.949900X0.949900X-0.949900X0.949900X-0.949900X-0.949900X0*%
%TD*%
%TA.AperFunction,ComponentPad*%
%ADD11C,2.500000*%
%TD*%
%TA.AperFunction,ComponentPad*%
%ADD12RoundRect,0.250001X1.099999X1.399999X-1.099999X1.399999X-1.099999X-1.399999X1.099999X-1.399999X0*%
%TD*%
%TA.AperFunction,ComponentPad*%
%ADD13O,2.700000X3.300000*%
%TD*%
%TA.AperFunction,ViaPad*%
%ADD14C,0.800000*%
%TD*%
%TA.AperFunction,Conductor*%
%ADD15C,3.000000*%
%TD*%
%TA.AperFunction,Conductor*%
%ADD16C,8.000000*%
%TD*%
G04 APERTURE END LIST*
D10*
%TO.P,J2,1,Pin_1*%
%TO.N,Net-(J1-Pin_1)*%
X117620000Y-68430000D03*
D11*
%TO.P,J2,2,Pin_2*%
%TO.N,GND*%
X115080000Y-70970000D03*
X120160000Y-70970000D03*
X115080000Y-65890000D03*
X120160000Y-65890000D03*
%TD*%
D10*
%TO.P,J1,1,Pin_1*%
%TO.N,Net-(J1-Pin_1)*%
X117650000Y-89680000D03*
D11*
%TO.P,J1,2,Pin_2*%
%TO.N,GND*%
X115110000Y-92220000D03*
X120190000Y-92220000D03*
X115110000Y-87140000D03*
X120190000Y-87140000D03*
%TD*%
D12*
%TO.P,J4,1,Pin_1*%
%TO.N,GND*%
X131530000Y-94640000D03*
D13*
%TO.P,J4,2,Pin_2*%
%TO.N,Net-(J1-Pin_1)*%
X131530000Y-89140000D03*
%TD*%
D14*
%TO.N,GND*%
X125200000Y-95250000D03*
X127990000Y-95240000D03*
X117900000Y-95190000D03*
X119340000Y-95190000D03*
X126580000Y-95260000D03*
X122160000Y-95210000D03*
X120830000Y-95230000D03*
X123600000Y-95240000D03*
X123880000Y-83710000D03*
X115380000Y-81610000D03*
X126870000Y-83730000D03*
X126880000Y-81640000D03*
X116820000Y-81640000D03*
X121080000Y-81660000D03*
X125430000Y-83730000D03*
X118190000Y-83750000D03*
X115370000Y-83730000D03*
X116700000Y-83710000D03*
X122540000Y-81630000D03*
X121090000Y-83720000D03*
X119630000Y-83750000D03*
X118150000Y-81620000D03*
X123950000Y-81610000D03*
X119640000Y-81660000D03*
X122500000Y-83700000D03*
X125330000Y-81620000D03*
X124000000Y-79690000D03*
X115500000Y-77590000D03*
X126990000Y-79710000D03*
X127000000Y-77620000D03*
X116940000Y-77620000D03*
X121200000Y-77640000D03*
X125550000Y-79710000D03*
X118310000Y-79730000D03*
X115490000Y-79710000D03*
X116820000Y-79690000D03*
X122660000Y-77610000D03*
X121210000Y-79700000D03*
X119750000Y-79730000D03*
X118270000Y-77600000D03*
X124070000Y-77590000D03*
X119760000Y-77640000D03*
X122620000Y-79680000D03*
X125450000Y-77600000D03*
X123780000Y-75450000D03*
X115280000Y-73350000D03*
X126770000Y-75470000D03*
X126780000Y-73380000D03*
X116720000Y-73380000D03*
X120980000Y-73400000D03*
X125330000Y-75470000D03*
X118090000Y-75490000D03*
X115270000Y-75470000D03*
X116600000Y-75450000D03*
X122440000Y-73370000D03*
X120990000Y-75460000D03*
X119530000Y-75490000D03*
X118050000Y-73360000D03*
X123850000Y-73350000D03*
X119540000Y-73400000D03*
X122400000Y-75440000D03*
X125230000Y-73360000D03*
X136530000Y-77610000D03*
X136530000Y-69040000D03*
X136530000Y-83440000D03*
X136520000Y-71810000D03*
X136480000Y-92090000D03*
X136540000Y-67440000D03*
X136480000Y-74740000D03*
X136500000Y-80540000D03*
X136500000Y-89270000D03*
X136540000Y-86230000D03*
X136500000Y-70480000D03*
X136500000Y-63190000D03*
X136510000Y-76200000D03*
X136480000Y-73300000D03*
X136480000Y-93530000D03*
X136520000Y-78990000D03*
X136520000Y-90600000D03*
X136530000Y-87830000D03*
X136550000Y-84850000D03*
X136550000Y-66060000D03*
X136500000Y-81980000D03*
X136530000Y-64650000D03*
X126010000Y-63210000D03*
X118880000Y-63240000D03*
X121750000Y-63190000D03*
X117500000Y-63230000D03*
X123190000Y-63190000D03*
X120290000Y-63220000D03*
X133300000Y-63210000D03*
X134740000Y-63210000D03*
X131840000Y-63240000D03*
X130430000Y-63260000D03*
X127450000Y-63240000D03*
X129050000Y-63250000D03*
X124680000Y-63230000D03*
X114080000Y-82080000D03*
X114080000Y-74790000D03*
X114080000Y-73350000D03*
X114110000Y-76250000D03*
X114130000Y-77660000D03*
X114110000Y-80640000D03*
X114120000Y-79040000D03*
X114100000Y-83410000D03*
X125670000Y-98270000D03*
X118540000Y-98300000D03*
X121410000Y-98250000D03*
X117160000Y-98290000D03*
X122850000Y-98250000D03*
X119950000Y-98280000D03*
X132960000Y-98270000D03*
X134400000Y-98270000D03*
X131500000Y-98300000D03*
X130090000Y-98320000D03*
X127110000Y-98300000D03*
X128710000Y-98310000D03*
X124340000Y-98290000D03*
X138560000Y-90260000D03*
X138540000Y-94520000D03*
X138540000Y-93080000D03*
X138560000Y-82970000D03*
X138560000Y-81530000D03*
X138590000Y-84430000D03*
X138610000Y-85840000D03*
X138590000Y-88820000D03*
X138600000Y-87220000D03*
X138580000Y-91590000D03*
X138560000Y-71470000D03*
X138590000Y-78600000D03*
X138540000Y-75730000D03*
X138580000Y-79980000D03*
X138540000Y-74290000D03*
X138570000Y-77190000D03*
X138560000Y-64180000D03*
X138560000Y-62740000D03*
X138590000Y-65640000D03*
X138610000Y-67050000D03*
X138590000Y-70030000D03*
X138600000Y-68430000D03*
X138580000Y-72800000D03*
X134710000Y-59590000D03*
X130400000Y-59640000D03*
X133270000Y-59590000D03*
X129020000Y-59630000D03*
X131810000Y-59620000D03*
X124650000Y-59610000D03*
X123160000Y-59570000D03*
X127420000Y-59620000D03*
X125980000Y-59590000D03*
X118850000Y-59620000D03*
X121720000Y-59570000D03*
X117470000Y-59610000D03*
X120260000Y-59600000D03*
X133870000Y-84450000D03*
X129050000Y-70160000D03*
X126500000Y-66720000D03*
X129260000Y-83200000D03*
X133780000Y-72280000D03*
X132390000Y-91650000D03*
X125020000Y-88240000D03*
X123710000Y-66730000D03*
X133730000Y-71050000D03*
X129240000Y-75010000D03*
X127960000Y-66690000D03*
X126260000Y-70170000D03*
X125090000Y-66740000D03*
X133840000Y-77500000D03*
X133830000Y-73540000D03*
X133860000Y-83030000D03*
X133850000Y-76180000D03*
X134040000Y-90910000D03*
X132220000Y-66710000D03*
X123210000Y-91690000D03*
X123120000Y-88230000D03*
X133940000Y-88460000D03*
X133660000Y-66740000D03*
X129260000Y-77650000D03*
X133900000Y-78870000D03*
X129250000Y-76390000D03*
X133840000Y-74920000D03*
X133920000Y-80180000D03*
X133640000Y-68300000D03*
X129190000Y-73750000D03*
X129090000Y-71300000D03*
X129140000Y-72520000D03*
X129260000Y-80300000D03*
X130490000Y-91640000D03*
X126730000Y-88230000D03*
X129270000Y-84500000D03*
X124800000Y-70200000D03*
X129240000Y-85990000D03*
X129230000Y-87360000D03*
X133880000Y-81620000D03*
X129270000Y-81670000D03*
X133680000Y-69830000D03*
X129250000Y-78970000D03*
X127640000Y-70180000D03*
X123360000Y-70200000D03*
X129400000Y-66690000D03*
X128300000Y-91720000D03*
X133880000Y-85920000D03*
X125110000Y-91700000D03*
X128210000Y-88260000D03*
X130890000Y-66730000D03*
X126820000Y-91690000D03*
%TD*%
D15*
%TO.N,GND*%
X114630000Y-92710000D02*
X121770000Y-92710000D01*
D16*
X122685000Y-95270000D02*
X130170000Y-95270000D01*
D15*
X114630000Y-86590000D02*
X114630000Y-93730000D01*
X114480000Y-86750000D02*
X121620000Y-86750000D01*
X114630000Y-65480000D02*
X121770000Y-65480000D01*
X114590000Y-71410000D02*
X121730000Y-71410000D01*
X114580000Y-65555000D02*
X114580000Y-83025000D01*
%TD*%
%TA.AperFunction,Conductor*%
%TO.N,GND*%
G36*
X139357500Y-58702113D02*
G01*
X139402887Y-58747500D01*
X139419500Y-58809500D01*
X139419500Y-72421944D01*
X139360274Y-99106368D01*
X139343585Y-99168225D01*
X139298248Y-99213495D01*
X139236367Y-99230093D01*
X113044593Y-99249830D01*
X112982554Y-99233248D01*
X112937128Y-99187857D01*
X112920500Y-99125830D01*
X112920500Y-97059999D01*
X113750686Y-97059999D01*
X113769268Y-97296110D01*
X113824556Y-97526404D01*
X113879258Y-97658465D01*
X113915191Y-97745214D01*
X114038939Y-97947153D01*
X114192754Y-98127246D01*
X114372847Y-98281061D01*
X114574786Y-98404809D01*
X114738893Y-98472784D01*
X114793595Y-98495443D01*
X114866350Y-98512909D01*
X115023891Y-98550732D01*
X115260000Y-98569314D01*
X115496109Y-98550732D01*
X115726404Y-98495443D01*
X115945214Y-98404809D01*
X116147153Y-98281061D01*
X116327246Y-98127246D01*
X116481061Y-97947153D01*
X116604809Y-97745214D01*
X116695443Y-97526404D01*
X116750732Y-97296109D01*
X116769314Y-97060000D01*
X135400686Y-97060000D01*
X135419268Y-97296110D01*
X135474556Y-97526404D01*
X135529258Y-97658465D01*
X135565191Y-97745214D01*
X135688939Y-97947153D01*
X135842754Y-98127246D01*
X136022847Y-98281061D01*
X136224786Y-98404809D01*
X136388893Y-98472784D01*
X136443595Y-98495443D01*
X136516350Y-98512909D01*
X136673891Y-98550732D01*
X136910000Y-98569314D01*
X137146109Y-98550732D01*
X137376404Y-98495443D01*
X137595214Y-98404809D01*
X137797153Y-98281061D01*
X137977246Y-98127246D01*
X138131061Y-97947153D01*
X138254809Y-97745214D01*
X138345443Y-97526404D01*
X138400732Y-97296109D01*
X138419314Y-97060000D01*
X138400732Y-96823891D01*
X138348141Y-96604832D01*
X138345443Y-96593595D01*
X138310130Y-96508344D01*
X138254809Y-96374786D01*
X138131061Y-96172847D01*
X137977246Y-95992754D01*
X137797153Y-95838939D01*
X137595214Y-95715191D01*
X137497945Y-95674901D01*
X137376404Y-95624556D01*
X137146110Y-95569268D01*
X136910000Y-95550686D01*
X136673889Y-95569268D01*
X136443595Y-95624556D01*
X136262537Y-95699554D01*
X136224786Y-95715191D01*
X136023702Y-95838415D01*
X136022844Y-95838941D01*
X135842754Y-95992754D01*
X135688941Y-96172844D01*
X135688939Y-96172846D01*
X135688939Y-96172847D01*
X135565191Y-96374786D01*
X135551917Y-96406832D01*
X135474556Y-96593595D01*
X135419268Y-96823889D01*
X135400686Y-97060000D01*
X116769314Y-97060000D01*
X116750732Y-96823891D01*
X116698141Y-96604832D01*
X116695443Y-96593595D01*
X116660130Y-96508344D01*
X116604809Y-96374786D01*
X116481061Y-96172847D01*
X116327246Y-95992754D01*
X116147153Y-95838939D01*
X115945214Y-95715191D01*
X115847945Y-95674901D01*
X115726404Y-95624556D01*
X115496110Y-95569268D01*
X115260000Y-95550686D01*
X115023889Y-95569268D01*
X114793595Y-95624556D01*
X114612537Y-95699554D01*
X114574786Y-95715191D01*
X114373702Y-95838415D01*
X114372844Y-95838941D01*
X114192754Y-95992754D01*
X114038941Y-96172844D01*
X114038939Y-96172846D01*
X114038939Y-96172847D01*
X113915191Y-96374786D01*
X113901917Y-96406832D01*
X113824556Y-96593595D01*
X113769268Y-96823889D01*
X113750686Y-97059999D01*
X112920500Y-97059999D01*
X112920500Y-95699760D01*
X112920541Y-95699554D01*
X112920541Y-95650446D01*
X112920500Y-95650240D01*
X112920500Y-94890000D01*
X129680000Y-94890000D01*
X129680000Y-96089978D01*
X129690493Y-96192695D01*
X129745642Y-96359121D01*
X129837683Y-96508344D01*
X129961655Y-96632316D01*
X130110878Y-96724357D01*
X130277304Y-96779506D01*
X130380022Y-96790000D01*
X131280000Y-96790000D01*
X131280000Y-94890000D01*
X131780000Y-94890000D01*
X131780000Y-96790000D01*
X132679978Y-96790000D01*
X132782695Y-96779506D01*
X132949121Y-96724357D01*
X133098344Y-96632316D01*
X133222316Y-96508344D01*
X133314357Y-96359121D01*
X133369506Y-96192695D01*
X133380000Y-96089978D01*
X133380000Y-94890000D01*
X131780000Y-94890000D01*
X131280000Y-94890000D01*
X129680000Y-94890000D01*
X112920500Y-94890000D01*
X112920500Y-94390000D01*
X129680000Y-94390000D01*
X131280000Y-94390000D01*
X131280000Y-92490000D01*
X131780000Y-92490000D01*
X131780000Y-94390000D01*
X133380000Y-94390000D01*
X133380000Y-93190022D01*
X133369506Y-93087304D01*
X133314357Y-92920878D01*
X133222316Y-92771655D01*
X133098344Y-92647683D01*
X132949121Y-92555642D01*
X132782695Y-92500493D01*
X132679978Y-92490000D01*
X131780000Y-92490000D01*
X131280000Y-92490000D01*
X130380022Y-92490000D01*
X130277304Y-92500493D01*
X130110878Y-92555642D01*
X129961655Y-92647683D01*
X129837683Y-92771655D01*
X129745642Y-92920878D01*
X129690493Y-93087304D01*
X129680000Y-93190022D01*
X129680000Y-94390000D01*
X112920500Y-94390000D01*
X112920500Y-94050620D01*
X112934018Y-93994320D01*
X112971624Y-93950295D01*
X113025120Y-93928144D01*
X113082841Y-93932696D01*
X113132203Y-93962960D01*
X113149616Y-93980381D01*
X113149617Y-93980383D01*
X113149808Y-93980461D01*
X113149999Y-93980541D01*
X113150000Y-93980541D01*
X113150001Y-93980541D01*
X113150127Y-93980488D01*
X113150383Y-93980383D01*
X113150500Y-93980099D01*
X113150500Y-93622720D01*
X114060831Y-93622720D01*
X114232546Y-93739793D01*
X114468860Y-93853596D01*
X114719496Y-93930908D01*
X114978856Y-93970000D01*
X115241144Y-93970000D01*
X115500503Y-93930908D01*
X115751139Y-93853596D01*
X115987456Y-93739792D01*
X116159167Y-93622720D01*
X119140831Y-93622720D01*
X119312546Y-93739793D01*
X119548860Y-93853596D01*
X119799496Y-93930908D01*
X120058856Y-93970000D01*
X120321144Y-93970000D01*
X120580503Y-93930908D01*
X120831139Y-93853596D01*
X121067456Y-93739792D01*
X121239167Y-93622720D01*
X120189999Y-92573553D01*
X120189998Y-92573553D01*
X119140831Y-93622720D01*
X116159167Y-93622720D01*
X115109999Y-92573553D01*
X115109998Y-92573553D01*
X114060831Y-93622720D01*
X113150500Y-93622720D01*
X113150500Y-92599827D01*
X113164870Y-92541886D01*
X113204648Y-92497373D01*
X113260616Y-92476607D01*
X113319802Y-92484399D01*
X113368488Y-92518943D01*
X113395391Y-92572234D01*
X113433059Y-92737270D01*
X113528882Y-92981424D01*
X113660027Y-93208573D01*
X113707873Y-93268571D01*
X113707874Y-93268571D01*
X114756446Y-92220001D01*
X114756446Y-92220000D01*
X113707873Y-91171427D01*
X113660028Y-91231424D01*
X113528882Y-91458576D01*
X113433059Y-91702729D01*
X113395391Y-91867766D01*
X113368488Y-91921057D01*
X113319802Y-91955601D01*
X113260616Y-91963393D01*
X113204648Y-91942627D01*
X113164870Y-91898114D01*
X113150500Y-91840173D01*
X113150500Y-87519827D01*
X113164870Y-87461886D01*
X113204648Y-87417373D01*
X113260616Y-87396607D01*
X113319802Y-87404399D01*
X113368488Y-87438943D01*
X113395391Y-87492234D01*
X113433059Y-87657270D01*
X113528882Y-87901424D01*
X113660027Y-88128573D01*
X113707873Y-88188571D01*
X113707874Y-88188571D01*
X114756446Y-87140001D01*
X114756446Y-87140000D01*
X113707873Y-86091427D01*
X113660028Y-86151424D01*
X113528882Y-86378576D01*
X113433059Y-86622729D01*
X113395391Y-86787766D01*
X113368488Y-86841057D01*
X113319802Y-86875601D01*
X113260616Y-86883393D01*
X113204648Y-86862627D01*
X113164870Y-86818114D01*
X113150500Y-86760173D01*
X113150500Y-85737278D01*
X114060832Y-85737278D01*
X115110000Y-86786446D01*
X115110001Y-86786446D01*
X116159167Y-85737278D01*
X119140832Y-85737278D01*
X120190000Y-86786446D01*
X120190001Y-86786446D01*
X121239167Y-85737278D01*
X121067451Y-85620205D01*
X120831139Y-85506403D01*
X120580503Y-85429091D01*
X120321144Y-85390000D01*
X120058856Y-85390000D01*
X119799496Y-85429091D01*
X119548860Y-85506403D01*
X119312545Y-85620206D01*
X119140832Y-85737278D01*
X116159167Y-85737278D01*
X115987451Y-85620205D01*
X115751139Y-85506403D01*
X115500503Y-85429091D01*
X115241144Y-85390000D01*
X114978856Y-85390000D01*
X114719496Y-85429091D01*
X114468860Y-85506403D01*
X114232545Y-85620206D01*
X114060832Y-85737278D01*
X113150500Y-85737278D01*
X113150500Y-85379900D01*
X113150383Y-85379618D01*
X113150383Y-85379617D01*
X113150381Y-85379616D01*
X113150001Y-85379459D01*
X113149999Y-85379459D01*
X113149618Y-85379616D01*
X113132203Y-85397040D01*
X113082841Y-85427304D01*
X113025120Y-85431856D01*
X112971624Y-85409705D01*
X112934018Y-85365680D01*
X112920500Y-85309380D01*
X112920500Y-72830635D01*
X112934017Y-72774336D01*
X112971623Y-72730311D01*
X113025117Y-72708159D01*
X113082837Y-72712710D01*
X113096622Y-72721161D01*
X113096716Y-72720936D01*
X113119999Y-72730541D01*
X113120000Y-72730541D01*
X113120001Y-72730541D01*
X113120127Y-72730488D01*
X113120383Y-72730383D01*
X113120500Y-72730099D01*
X113120500Y-72372720D01*
X114030831Y-72372720D01*
X114202546Y-72489793D01*
X114438860Y-72603596D01*
X114689496Y-72680908D01*
X114948856Y-72720000D01*
X115211144Y-72720000D01*
X115470503Y-72680908D01*
X115721139Y-72603596D01*
X115957456Y-72489792D01*
X116129167Y-72372720D01*
X119110831Y-72372720D01*
X119282546Y-72489793D01*
X119518860Y-72603596D01*
X119769496Y-72680908D01*
X120028856Y-72720000D01*
X120291144Y-72720000D01*
X120550503Y-72680908D01*
X120801139Y-72603596D01*
X121037456Y-72489792D01*
X121209167Y-72372720D01*
X120160001Y-71323553D01*
X120160000Y-71323553D01*
X119110831Y-72372720D01*
X116129167Y-72372720D01*
X115080001Y-71323553D01*
X115080000Y-71323553D01*
X114030831Y-72372720D01*
X113120500Y-72372720D01*
X113120500Y-71349827D01*
X113134870Y-71291886D01*
X113174648Y-71247373D01*
X113230616Y-71226607D01*
X113289802Y-71234399D01*
X113338488Y-71268943D01*
X113365391Y-71322234D01*
X113403059Y-71487270D01*
X113498882Y-71731424D01*
X113630027Y-71958573D01*
X113677873Y-72018571D01*
X113677874Y-72018571D01*
X114726446Y-70970001D01*
X114726446Y-70969999D01*
X113677873Y-69921427D01*
X113630028Y-69981424D01*
X113498882Y-70208576D01*
X113403059Y-70452729D01*
X113365391Y-70617766D01*
X113338488Y-70671057D01*
X113289802Y-70705601D01*
X113230616Y-70713393D01*
X113174648Y-70692627D01*
X113134870Y-70648114D01*
X113120500Y-70590173D01*
X113120500Y-69567278D01*
X114030831Y-69567278D01*
X116482124Y-72018571D01*
X116529972Y-71958572D01*
X116661117Y-71731423D01*
X116756940Y-71487270D01*
X116815306Y-71231552D01*
X116834907Y-70969999D01*
X116815306Y-70708447D01*
X116756941Y-70452735D01*
X116677297Y-70249802D01*
X116669506Y-70190616D01*
X116690273Y-70134648D01*
X116734785Y-70094870D01*
X116792726Y-70080500D01*
X118447274Y-70080500D01*
X118505215Y-70094870D01*
X118549727Y-70134648D01*
X118570494Y-70190616D01*
X118562703Y-70249802D01*
X118483058Y-70452735D01*
X118424693Y-70708447D01*
X118405092Y-70969999D01*
X118424693Y-71231552D01*
X118483059Y-71487270D01*
X118578882Y-71731424D01*
X118710027Y-71958573D01*
X118757873Y-72018571D01*
X120072318Y-70704127D01*
X120127905Y-70672033D01*
X120192093Y-70672033D01*
X120247680Y-70704127D01*
X121562124Y-72018571D01*
X121609972Y-71958572D01*
X121741117Y-71731423D01*
X121836940Y-71487270D01*
X121895306Y-71231552D01*
X121914907Y-70969999D01*
X121895306Y-70708447D01*
X121836940Y-70452729D01*
X121741117Y-70208575D01*
X121609970Y-69981422D01*
X121570009Y-69931312D01*
X121543736Y-69867883D01*
X121555236Y-69800198D01*
X121600984Y-69749006D01*
X121666956Y-69730000D01*
X129565935Y-69730000D01*
X129627954Y-69746624D01*
X129673344Y-69792038D01*
X129689934Y-69854063D01*
X129688425Y-72720936D01*
X129680064Y-88595939D01*
X129663409Y-88657948D01*
X129617973Y-88703314D01*
X129555939Y-88719874D01*
X121359374Y-88711628D01*
X121294112Y-88692987D01*
X121248439Y-88642780D01*
X121236041Y-88576050D01*
X121239166Y-88542719D01*
X120190000Y-87493553D01*
X119836448Y-87140001D01*
X120543553Y-87140001D01*
X121592124Y-88188571D01*
X121639972Y-88128572D01*
X121771117Y-87901423D01*
X121866940Y-87657270D01*
X121925306Y-87401552D01*
X121944907Y-87139999D01*
X121925306Y-86878447D01*
X121866940Y-86622729D01*
X121771117Y-86378575D01*
X121639972Y-86151426D01*
X121592125Y-86091427D01*
X120543553Y-87140000D01*
X120543553Y-87140001D01*
X119836448Y-87140001D01*
X118787874Y-86091428D01*
X118740026Y-86151428D01*
X118608882Y-86378576D01*
X118513059Y-86622729D01*
X118454693Y-86878447D01*
X118435092Y-87139999D01*
X118454693Y-87401552D01*
X118513058Y-87657264D01*
X118592703Y-87860198D01*
X118600494Y-87919384D01*
X118579727Y-87975352D01*
X118535215Y-88015130D01*
X118477274Y-88029500D01*
X116822726Y-88029500D01*
X116764785Y-88015130D01*
X116720273Y-87975352D01*
X116699506Y-87919384D01*
X116707297Y-87860198D01*
X116786941Y-87657264D01*
X116845306Y-87401552D01*
X116864907Y-87139999D01*
X116845306Y-86878447D01*
X116786940Y-86622729D01*
X116691117Y-86378575D01*
X116559972Y-86151426D01*
X116512125Y-86091427D01*
X115110000Y-87493553D01*
X114060831Y-88542720D01*
X114232546Y-88659793D01*
X114468860Y-88773596D01*
X114719496Y-88850908D01*
X114978856Y-88890000D01*
X115241144Y-88890000D01*
X115500503Y-88850908D01*
X115751142Y-88773595D01*
X115821699Y-88739618D01*
X115882453Y-88727533D01*
X115941472Y-88746344D01*
X115984028Y-88791357D01*
X115999500Y-88851338D01*
X115999500Y-90508662D01*
X115984028Y-90568643D01*
X115941472Y-90613656D01*
X115882453Y-90632467D01*
X115821699Y-90620382D01*
X115751142Y-90586404D01*
X115500503Y-90509091D01*
X115241144Y-90470000D01*
X114978856Y-90470000D01*
X114719496Y-90509091D01*
X114468860Y-90586403D01*
X114232545Y-90700206D01*
X114060831Y-90817278D01*
X116512124Y-93268571D01*
X116559972Y-93208572D01*
X116691117Y-92981423D01*
X116786940Y-92737270D01*
X116845306Y-92481552D01*
X116864907Y-92220000D01*
X116845306Y-91958447D01*
X116786941Y-91702735D01*
X116707297Y-91499802D01*
X116699506Y-91440616D01*
X116720273Y-91384648D01*
X116764785Y-91344870D01*
X116822726Y-91330500D01*
X118477274Y-91330500D01*
X118535215Y-91344870D01*
X118579727Y-91384648D01*
X118600494Y-91440616D01*
X118592703Y-91499802D01*
X118513058Y-91702735D01*
X118454693Y-91958447D01*
X118435092Y-92220000D01*
X118454693Y-92481552D01*
X118513059Y-92737270D01*
X118608882Y-92981424D01*
X118740027Y-93208573D01*
X118787873Y-93268571D01*
X120102318Y-91954127D01*
X120157905Y-91922033D01*
X120222093Y-91922033D01*
X120277680Y-91954127D01*
X121592124Y-93268571D01*
X121639972Y-93208572D01*
X121771117Y-92981423D01*
X121866940Y-92737270D01*
X121925306Y-92481552D01*
X121944907Y-92220000D01*
X121925306Y-91958447D01*
X121866940Y-91702729D01*
X121771117Y-91458576D01*
X121693668Y-91324430D01*
X121677055Y-91262453D01*
X121693645Y-91200470D01*
X121738995Y-91155078D01*
X121800957Y-91138431D01*
X130743234Y-91131722D01*
X130800026Y-91145445D01*
X130804325Y-91147656D01*
X131049867Y-91231424D01*
X131060695Y-91235118D01*
X131327066Y-91284319D01*
X131597764Y-91294212D01*
X131597764Y-91294211D01*
X131597765Y-91294212D01*
X131867018Y-91264586D01*
X132129088Y-91196072D01*
X132243019Y-91147656D01*
X132260035Y-91140425D01*
X132308438Y-91130548D01*
X133040000Y-91130000D01*
X133039268Y-90549963D01*
X133044503Y-90514158D01*
X133059851Y-90481391D01*
X133148044Y-90348090D01*
X133263020Y-90102824D01*
X133341060Y-89843431D01*
X133380500Y-89575439D01*
X133380500Y-88772369D01*
X133377218Y-88727533D01*
X133365677Y-88569843D01*
X133306780Y-88305449D01*
X133306780Y-88305447D01*
X133210014Y-88052442D01*
X133077441Y-87816223D01*
X133061553Y-87795648D01*
X133042367Y-87759976D01*
X133035700Y-87720024D01*
X133009999Y-67330000D01*
X133009999Y-67329999D01*
X121324227Y-67356141D01*
X121276625Y-67346755D01*
X121236269Y-67319822D01*
X120160000Y-66243553D01*
X119806447Y-65890000D01*
X120513553Y-65890000D01*
X121562124Y-66938571D01*
X121609972Y-66878572D01*
X121741117Y-66651423D01*
X121836940Y-66407270D01*
X121895306Y-66151552D01*
X121914907Y-65890000D01*
X121895306Y-65628447D01*
X121836940Y-65372729D01*
X121741117Y-65128575D01*
X121609972Y-64901426D01*
X121562125Y-64841427D01*
X120513553Y-65890000D01*
X119806447Y-65890000D01*
X118757874Y-64841428D01*
X118710026Y-64901428D01*
X118578882Y-65128576D01*
X118483059Y-65372729D01*
X118424693Y-65628447D01*
X118405092Y-65890000D01*
X118424693Y-66151552D01*
X118483058Y-66407264D01*
X118562703Y-66610198D01*
X118570494Y-66669384D01*
X118549727Y-66725352D01*
X118505215Y-66765130D01*
X118447274Y-66779500D01*
X116792726Y-66779500D01*
X116734785Y-66765130D01*
X116690273Y-66725352D01*
X116669506Y-66669384D01*
X116677297Y-66610198D01*
X116756941Y-66407264D01*
X116815306Y-66151552D01*
X116834907Y-65890000D01*
X116815306Y-65628447D01*
X116756940Y-65372729D01*
X116661117Y-65128575D01*
X116529972Y-64901426D01*
X116482125Y-64841427D01*
X115080000Y-66243553D01*
X114030831Y-67292720D01*
X114202546Y-67409793D01*
X114438860Y-67523596D01*
X114689496Y-67600908D01*
X114948856Y-67640000D01*
X115211144Y-67640000D01*
X115470503Y-67600908D01*
X115721142Y-67523595D01*
X115791699Y-67489618D01*
X115852453Y-67477533D01*
X115911472Y-67496344D01*
X115954028Y-67541357D01*
X115969500Y-67601338D01*
X115969500Y-69258662D01*
X115954028Y-69318643D01*
X115911472Y-69363656D01*
X115852453Y-69382467D01*
X115791699Y-69370382D01*
X115721142Y-69336404D01*
X115470503Y-69259091D01*
X115211144Y-69220000D01*
X114948856Y-69220000D01*
X114689496Y-69259091D01*
X114438860Y-69336403D01*
X114202545Y-69450206D01*
X114030831Y-69567278D01*
X113120500Y-69567278D01*
X113120500Y-66269827D01*
X113134870Y-66211886D01*
X113174648Y-66167373D01*
X113230616Y-66146607D01*
X113289802Y-66154399D01*
X113338488Y-66188943D01*
X113365391Y-66242234D01*
X113403059Y-66407270D01*
X113498882Y-66651424D01*
X113630027Y-66878573D01*
X113677873Y-66938571D01*
X113677874Y-66938571D01*
X114726446Y-65890001D01*
X114726446Y-65889999D01*
X113677873Y-64841427D01*
X113630028Y-64901424D01*
X113498882Y-65128576D01*
X113403059Y-65372729D01*
X113365391Y-65537766D01*
X113338488Y-65591057D01*
X113289802Y-65625601D01*
X113230616Y-65633393D01*
X113174648Y-65612627D01*
X113134870Y-65568114D01*
X113120500Y-65510173D01*
X113120500Y-64487278D01*
X114030832Y-64487278D01*
X115080000Y-65536446D01*
X115080001Y-65536446D01*
X116129167Y-64487278D01*
X119110832Y-64487278D01*
X120160000Y-65536446D01*
X120160001Y-65536446D01*
X121209167Y-64487278D01*
X121037451Y-64370205D01*
X120801139Y-64256403D01*
X120550503Y-64179091D01*
X120291144Y-64140000D01*
X120028856Y-64140000D01*
X119769496Y-64179091D01*
X119518860Y-64256403D01*
X119282545Y-64370206D01*
X119110832Y-64487278D01*
X116129167Y-64487278D01*
X115957451Y-64370205D01*
X115721139Y-64256403D01*
X115470503Y-64179091D01*
X115211144Y-64140000D01*
X114948856Y-64140000D01*
X114689496Y-64179091D01*
X114438860Y-64256403D01*
X114202545Y-64370206D01*
X114030832Y-64487278D01*
X113120500Y-64487278D01*
X113120500Y-64129900D01*
X113120441Y-64129758D01*
X113120383Y-64129617D01*
X113120381Y-64129616D01*
X113120001Y-64129459D01*
X113119999Y-64129459D01*
X113096716Y-64139064D01*
X113096622Y-64138838D01*
X113082837Y-64147290D01*
X113025117Y-64151841D01*
X112971623Y-64129689D01*
X112934017Y-64085664D01*
X112920500Y-64029365D01*
X112920500Y-60999999D01*
X113750686Y-60999999D01*
X113769268Y-61236110D01*
X113824556Y-61466404D01*
X113879258Y-61598465D01*
X113915191Y-61685214D01*
X114038939Y-61887153D01*
X114192754Y-62067246D01*
X114372847Y-62221061D01*
X114574786Y-62344809D01*
X114738893Y-62412784D01*
X114793595Y-62435443D01*
X114866350Y-62452909D01*
X115023891Y-62490732D01*
X115260000Y-62509314D01*
X115496109Y-62490732D01*
X115726404Y-62435443D01*
X115945214Y-62344809D01*
X116147153Y-62221061D01*
X116327246Y-62067246D01*
X116481061Y-61887153D01*
X116604809Y-61685214D01*
X116695443Y-61466404D01*
X116750732Y-61236109D01*
X116769314Y-61000000D01*
X135400686Y-61000000D01*
X135419268Y-61236110D01*
X135474556Y-61466404D01*
X135529258Y-61598465D01*
X135565191Y-61685214D01*
X135688939Y-61887153D01*
X135842754Y-62067246D01*
X136022847Y-62221061D01*
X136224786Y-62344809D01*
X136388893Y-62412784D01*
X136443595Y-62435443D01*
X136516350Y-62452909D01*
X136673891Y-62490732D01*
X136910000Y-62509314D01*
X137146109Y-62490732D01*
X137376404Y-62435443D01*
X137595214Y-62344809D01*
X137797153Y-62221061D01*
X137977246Y-62067246D01*
X138131061Y-61887153D01*
X138254809Y-61685214D01*
X138345443Y-61466404D01*
X138400732Y-61236109D01*
X138419314Y-61000000D01*
X138400732Y-60763891D01*
X138348141Y-60544832D01*
X138345443Y-60533595D01*
X138322784Y-60478893D01*
X138254809Y-60314786D01*
X138131061Y-60112847D01*
X137977246Y-59932754D01*
X137797153Y-59778939D01*
X137595214Y-59655191D01*
X137508465Y-59619258D01*
X137376404Y-59564556D01*
X137146110Y-59509268D01*
X136910000Y-59490686D01*
X136673889Y-59509268D01*
X136443595Y-59564556D01*
X136256832Y-59641916D01*
X136224786Y-59655191D01*
X136023702Y-59778415D01*
X136022844Y-59778941D01*
X135842754Y-59932754D01*
X135688941Y-60112844D01*
X135688939Y-60112846D01*
X135688939Y-60112847D01*
X135565191Y-60314786D01*
X135551916Y-60346832D01*
X135474556Y-60533595D01*
X135419268Y-60763889D01*
X135400686Y-61000000D01*
X116769314Y-61000000D01*
X116750732Y-60763891D01*
X116698141Y-60544832D01*
X116695443Y-60533595D01*
X116672784Y-60478893D01*
X116604809Y-60314786D01*
X116481061Y-60112847D01*
X116327246Y-59932754D01*
X116147153Y-59778939D01*
X115945214Y-59655191D01*
X115858465Y-59619258D01*
X115726404Y-59564556D01*
X115496110Y-59509268D01*
X115260000Y-59490686D01*
X115023889Y-59509268D01*
X114793595Y-59564556D01*
X114606832Y-59641916D01*
X114574786Y-59655191D01*
X114373702Y-59778415D01*
X114372844Y-59778941D01*
X114192754Y-59932754D01*
X114038941Y-60112844D01*
X114038939Y-60112846D01*
X114038939Y-60112847D01*
X113915191Y-60314786D01*
X113901916Y-60346832D01*
X113824556Y-60533595D01*
X113769268Y-60763889D01*
X113750686Y-60999999D01*
X112920500Y-60999999D01*
X112920500Y-60629760D01*
X112920541Y-60629554D01*
X112920541Y-60580446D01*
X112920500Y-60580240D01*
X112920500Y-58813953D01*
X112937105Y-58751966D01*
X112982473Y-58706581D01*
X113044452Y-58689953D01*
X124858500Y-58685500D01*
X139295500Y-58685500D01*
X139357500Y-58702113D01*
G37*
%TD.AperFunction*%
%TD*%
M02*
